<?xml version="1.0" encoding="UTF-8"?>
<!DOCTYPE svg PUBLIC "-//W3C//DTD SVG 1.1//EN" "http://www.w3.org/Graphics/SVG/1.1/DTD/svg11.dtd">
<!-- Creator: CorelDRAW -->
<svg xmlns="http://www.w3.org/2000/svg" xml:space="preserve" width="1718px" height="921px" style="shape-rendering:geometricPrecision; text-rendering:geometricPrecision; image-rendering:optimizeQuality; fill-rule:evenodd; clip-rule:evenodd"
viewBox="0 0 1002.17 537.118"
 xmlns:xlink="http://www.w3.org/1999/xlink">
 <defs>
  <style type="text/css">
   <![CDATA[
    .fil2 {fill:#243849}
    .fil0 {fill:#3F864A}
    .fil1 {fill:#DDB037}
   ]]>
  </style>
 </defs>
 <g id="Camada_x0020_1">
  <metadata id="CorelCorpID_0Corel-Layer"/>
  <g id="_132538096">
   <path id="_132538024" class="fil0" d="M496.152 145.509c269.202,23.7045 483.567,96.4513 478.796,162.488 -4.76999,66.0363 -226.869,100.352 -496.072,76.6506 -269.202,-23.7045 -483.568,-96.4513 -478.797,-162.488 4.77068,-66.0363 226.871,-100.352 496.073,-76.6506zm-1.02746 0.923401l0 0c-258.372,-23.5054 -471.93,6.2302 -476.994,66.4167 -5.06355,60.1871 200.284,128.032 458.657,151.538 258.372,23.5061 471.93,-6.2302 476.993,-66.4167 5.06355,-60.1871 -200.284,-128.032 -458.656,-151.538z"/>
   <path id="_132538288" class="fil1" d="M497.757 62.9332c251.749,-78.9522 466.343,-82.089 479.308,-7.00407 12.9648,75.0849 -180.608,199.957 -432.358,278.909 -251.751,78.9522 -466.344,82.0862 -479.309,7.00269 -12.9662,-75.0849 180.609,-199.956 432.359,-278.908zm7.1095 -3.03551l0 0c-262.749,81.2042 -466.311,214.417 -454.667,297.544 11.6438,83.1247 234.082,84.6835 496.83,3.48205 262.749,-81.2049 466.31,-214.419 454.667,-297.545 -11.6438,-83.1275 -234.083,-84.6835 -496.83,-3.48136z"/>
   <path id="_132538432" class="fil2" d="M742.314 127.012l47.8032 0.013093 -0.0372117 -57.8283c0.0192949,-3.61229 -0.505803,-9.36356 4.05607,-9.5827l24.3178 0c4.56188,0.219135 4.0354,5.97041 4.05607,9.5827l0.0923401 57.8077 105.372 0.00551284c3.6936,0.0192949 9.57374,-0.494778 9.79839,3.9658l0 23.7852c-0.224648,4.46127 -6.10478,3.94788 -9.79839,3.96649l-105.559 -0.0124039 -0.240498 161.281c0.956478,24.0946 26.9785,46.3217 52.6277,46.6579 27.6648,0.365226 45.7318,-6.61403 61.9333,-17.9347l0 31.7815c-10.9085,11.4564 -36.6907,18.5376 -61.863,18.5197 -44.9565,-0.0316988 -84.6187,-37.4439 -84.6297,-78.4029l-0.104744 -161.913 -8.4822 -0.00826926 -1.75515 22.0679c-27.3837,-17.1946 -48.6749,-31.7106 -84.6331,-31.561 -55.5791,0.229472 -107.781,40.1866 -110.794,106.337 0.280466,55.0106 32.685,110.907 110.18,111.083 32.2977,0.0737343 58.5471,-7.93436 87.0443,-33.7903l0.338351 38.9227c-26.9571,17.1098 -54.6991,25.962 -88.058,25.9269 -53.294,-0.0578848 -96.4113,-19.7325 -120.513,-59.5166l-0.00620195 25.4349c-30.8354,22.0679 -67.9106,35.2946 -106.247,34.0818 -66.3098,-2.0997 -121.061,-43.0953 -135.058,-110.496l-0.0840708 184.64c-0.177789,25.8539 -22.4731,65.3099 -61.8624,65.29 -15.6461,-0.00826926 -30.9505,-3.05136 -36.6225,-7.40512l0 -29.7838c7.41822,4.3834 31.8787,8.23963 44.295,3.99612 9.52206,-3.25258 21.64,-21.518 22.2581,-33.7165l-0.223959 -103.564c-33.9598,19.6505 -58.1501,32.4265 -101.977,31.0387 -76.1137,-2.40911 -136.996,-56.067 -138.512,-142.079 -1.34996,-76.6533 57.4149,-139.174 128.033,-138.765 57.6636,0.334216 94.599,32.8352 112.454,80.5123l-0.109568 -60.8632c0.0199841,-3.61298 -0.505803,-9.36356 4.05538,-9.58408l24.3185 0c4.56188,0.220514 4.03609,5.9711 4.05607,9.58408l-0.0744234 85.1238c13.4382,-60.307 64.7538,-105.12 124.574,-104.773 55.1167,0.320434 91.2934,30.0257 109.981,74.36 22.9472,-45.7001 71.2307,-74.1339 127,-74.36 18.9945,-0.0758016 35.2608,4.12567 48.5978,10.1733zm-174.271 201.179l0 0c-8.80263,-17.996 -14.1418,-39.5498 -15.3719,-64.6787 -62.9339,0.0206732 -125.884,0.0206732 -188.836,0.0206732 1.29483,45.76 37.0222,99.5984 104.053,103.091 34.8804,1.81648 68.7527,-7.23216 100.155,-38.4328zm-111.8 -179.987l0 0c-49.2455,0.48513 -89.7628,49.5191 -90.8875,88.0711l178.705 0c3.19607,-40.4629 -31.6334,-88.6231 -87.8175,-88.0711zm-156.379 178.861l0 0 -0.264616 -63.5445c-68.5308,0.0124039 -136.57,0.0124039 -205.038,0.0124039 1.29483,45.76 37.0222,99.5984 104.053,103.091 35.3215,1.8406 69.6079,-7.4637 101.25,-39.5588zm-112.895 -178.861l0 0c-49.2455,0.48513 -89.7622,49.5191 -90.8875,88.0711l178.705 0c3.19607,-40.4629 -31.6334,-88.6231 -87.8175,-88.0711z"/>
   <path id="_132540688" class="fil1" d="M331.755 124.995c50.8318,-22.3959 106.809,-43.4991 166.002,-62.0622 251.749,-78.9522 466.343,-82.089 479.308,-7.00407 12.9648,75.0849 -180.608,199.957 -432.358,278.909 -251.751,78.9522 -466.344,82.0862 -479.309,7.00269 -1.64627,-9.53101 0.0372117,-19.8662 4.7438,-30.8064l-2.83842 -7.95227c-13.3018,19.5492 -19.4045,37.9325 -17.1036,54.3594 11.6438,83.1247 234.082,84.6835 496.83,3.48205 262.749,-81.2049 466.31,-214.419 454.667,-297.545 -11.6438,-83.1275 -234.083,-84.6835 -496.83,-3.48136 -61.7976,19.0986 -120.56,40.5442 -173.541,64.5988l0.429313 0.498912z"/>
   <path id="_132541024" class="fil0" d="M91.5531 161.742c-55.9733,14.5077 -89.6485,35.1375 -91.4746,60.4173 -4.77068,66.037 209.595,138.784 478.797,162.488 269.202,23.7018 491.302,-10.6143 496.072,-76.6506 2.08868,-28.9135 -37.8305,-59.1128 -105.966,-85.9176l-2.78192 2.18033c56.9208,23.5054 89.6395,49.2414 87.5811,73.7101 -5.06355,60.1865 -218.621,89.9227 -476.993,66.4167 -258.372,-23.5054 -463.72,-91.3505 -458.657,-151.538 1.75308,-20.8303 28.48,-38.0138 73.3952,-50.6044l0.0275642 -0.502358z"/>
   <path id="_132541240" class="fil2" d="M294.264 56.3729l20.0123 -19.5733c1.98531,-1.94259 5.23444,-1.94259 7.22044,0l20.0116 19.5727c1.986,1.94259 1.986,5.11936 0.000689105,7.06126l-20.013 19.574c-1.98531,1.9419 -5.23444,1.9419 -7.22044,-0.000689105l-20.0109 -19.5727c-1.986,-1.94259 -1.986,-5.11936 -0.000689105,-7.06126z"/>
  </g>
 </g>
</svg>
