<svg width="569" height="569" viewBox="0 0 569 569" fill="none" xmlns="http://www.w3.org/2000/svg">
<g filter="url(#filter0_d)">
<g filter="url(#filter1_i)">
<path d="M227.601 91.0912C238.627 64.8292 273.947 60.3511 291.178 83.0306L480.235 331.872C497.465 354.551 483.683 387.379 455.427 390.961L145.396 430.268C117.14 433.851 95.6011 405.502 106.627 379.24L227.601 91.0912Z" fill="#FFCC01"/>
</g>
<g filter="url(#filter2_di)">
<path d="M249.795 128.44C254.861 116.373 271.089 114.316 279.006 124.736L436.793 332.418C444.709 342.839 438.377 357.922 425.394 359.568L166.643 392.373C153.66 394.019 143.764 380.994 148.83 368.928L249.795 128.44Z" stroke="black" stroke-width="15"/>
</g>
<g filter="url(#filter3_di)">
<path d="M243.113 242.25C244.66 242.054 246.239 241.865 247.85 241.681C249.479 241.475 251.011 241.333 252.447 241.255L252.626 243.653L244.119 244.731C242.923 244.883 242.407 245.608 242.572 246.908L243.133 251.331L252.227 250.178L252.529 252.56L243.435 253.713L244.141 259.281C244.308 260.6 244.99 261.184 246.186 261.033L254.692 259.954L255.114 262.29C253.704 262.573 252.185 262.818 250.556 263.025C248.95 263.249 247.374 263.459 245.827 263.656C244.548 263.818 243.485 263.607 242.635 263.023C241.786 262.439 241.287 261.56 241.138 260.384L239.389 246.588C239.24 245.413 239.503 244.437 240.18 243.659C240.857 242.882 241.835 242.412 243.113 242.25Z" fill="black"/>
<path d="M266.821 238.993C268.512 238.779 269.896 238.792 270.975 239.032C272.071 239.249 272.914 239.782 273.503 240.629C274.09 241.455 274.485 242.673 274.689 244.281C274.903 245.972 274.757 247.301 274.251 248.266C273.765 249.228 272.823 249.892 271.424 250.258L271.443 250.413C271.995 250.469 272.56 250.712 273.138 251.141C273.717 251.571 274.19 252.244 274.557 253.161L277.419 259.619L274.14 260.034L271.441 253.619C271.094 252.867 270.673 252.355 270.178 252.082C269.703 251.807 269.125 251.713 268.445 251.799C267.517 251.917 266.681 252.023 265.939 252.117C265.197 252.211 264.546 252.283 263.986 252.333L265.108 261.18L262.046 261.568L259.34 240.224C260.113 240.043 260.847 239.887 261.543 239.756C262.239 239.626 263 239.509 263.824 239.404C264.647 239.279 265.646 239.142 266.821 238.993ZM267.085 241.568C266.218 241.678 265.416 241.79 264.676 241.905C263.933 241.999 263.274 242.083 262.696 242.156L263.665 249.796L268.057 249.24C269.068 249.111 269.847 248.897 270.396 248.597C270.965 248.295 271.338 247.849 271.515 247.261C271.692 246.673 271.716 245.874 271.588 244.863C271.46 243.853 271.238 243.095 270.923 242.59C270.605 242.065 270.134 241.737 269.51 241.607C268.903 241.453 268.095 241.44 267.085 241.568Z" fill="black"/>
<path d="M288.877 236.197C290.568 235.982 291.953 235.995 293.031 236.236C294.127 236.453 294.97 236.985 295.559 237.832C296.146 238.659 296.541 239.877 296.745 241.485C296.959 243.176 296.814 244.504 296.307 245.469C295.822 246.432 294.879 247.096 293.48 247.462L293.5 247.617C294.051 247.672 294.616 247.915 295.195 248.345C295.773 248.774 296.246 249.448 296.614 250.365L299.475 256.822L296.197 257.238L293.497 250.823C293.151 250.071 292.729 249.558 292.234 249.286C291.759 249.011 291.181 248.916 290.501 249.003C289.573 249.12 288.738 249.226 287.995 249.32C287.253 249.414 286.602 249.487 286.043 249.536L287.164 258.383L284.102 258.771L281.396 237.428C282.169 237.246 282.904 237.09 283.6 236.96C284.295 236.83 285.056 236.713 285.881 236.608C286.703 236.483 287.702 236.346 288.877 236.197ZM289.141 238.772C288.275 238.882 287.472 238.994 286.732 239.109C285.99 239.203 285.33 239.287 284.752 239.36L285.721 247L290.113 246.443C291.124 246.315 291.903 246.101 292.452 245.801C293.021 245.498 293.394 245.053 293.571 244.465C293.748 243.877 293.773 243.077 293.644 242.067C293.516 241.056 293.295 240.299 292.979 239.794C292.661 239.268 292.19 238.941 291.566 238.81C290.96 238.657 290.151 238.644 289.141 238.772Z" fill="black"/>
<path d="M311.196 233.241C313.3 232.975 315.013 233.103 316.337 233.627C317.681 234.148 318.723 235.178 319.463 236.719C320.224 238.257 320.782 240.428 321.138 243.233C321.493 246.037 321.494 248.279 321.142 249.958C320.809 251.635 320.057 252.893 318.886 253.733C317.735 254.57 316.108 255.122 314.004 255.389C311.901 255.656 310.177 255.528 308.833 255.007C307.489 254.486 306.436 253.457 305.675 251.919C304.915 250.381 304.357 248.21 304.001 245.405C303.645 242.601 303.644 240.359 303.997 238.68C304.35 237.001 305.112 235.741 306.284 234.901C307.455 234.061 309.093 233.508 311.196 233.241ZM311.537 235.932C310.197 236.102 309.168 236.495 308.449 237.11C307.749 237.701 307.312 238.637 307.139 239.916C306.964 241.174 307.011 242.866 307.28 244.99C307.549 247.114 307.927 248.773 308.414 249.969C308.898 251.144 309.554 251.94 310.383 252.359C311.229 252.755 312.323 252.868 313.663 252.698C315.003 252.528 316.024 252.147 316.724 251.555C317.442 250.94 317.889 250.004 318.065 248.745C318.238 247.466 318.19 245.765 317.921 243.64C317.651 241.516 317.275 239.867 316.79 238.692C316.304 237.497 315.637 236.701 314.791 236.306C313.962 235.887 312.878 235.762 311.537 235.932Z" fill="black"/>
<path d="M252.068 286.908L255.198 311.592L262.213 310.703L263.377 319.883L256.635 322.234L256.548 322.245L258.163 334.977L243.265 336.866L241.651 324.134L217.487 327.198C215.87 327.403 214.429 327.145 213.165 326.426C211.9 325.706 210.982 324.708 210.409 323.431C209.829 322.096 209.733 320.642 210.12 319.067L220.358 279.048L235.429 277.137L226.568 312.758C226.375 313.545 226.452 314.151 226.799 314.577C227.197 314.937 227.771 315.069 228.521 314.974L240.301 313.481L238.357 298.151L239.856 288.456L252.068 286.908Z" fill="black"/>
<path d="M283.033 269.87C289.096 269.101 294.042 269.471 297.871 270.981C301.7 272.49 304.679 275.398 306.809 279.704C308.939 284.01 310.498 290.06 311.486 297.855C312.475 305.65 312.475 311.898 311.487 316.6C310.499 321.301 308.339 324.86 305.008 327.278C301.677 329.695 296.981 331.287 290.918 332.056C284.855 332.825 279.909 332.455 276.08 330.945C272.309 329.429 269.359 326.517 267.229 322.211C265.157 317.898 263.626 311.843 262.638 304.049C261.65 296.254 261.621 290.009 262.551 285.315C263.539 280.613 265.669 277.058 268.943 274.648C272.274 272.231 276.971 270.638 283.033 269.87ZM284.506 282.179C282.37 282.45 280.754 283.124 279.658 284.202C278.621 285.272 278.043 287.194 277.925 289.966C277.8 292.681 278.074 296.694 278.748 302.006C279.421 307.318 280.161 311.302 280.967 313.957C281.765 316.555 282.801 318.242 284.073 319.02C285.402 319.79 287.135 320.039 289.272 319.768C291.524 319.483 293.197 318.801 294.293 317.724C295.388 316.646 295.999 314.75 296.124 312.035C296.299 309.256 296.05 305.21 295.377 299.898C294.703 294.586 293.938 290.634 293.082 288.044C292.276 285.389 291.208 283.676 289.878 282.906C288.549 282.136 286.758 281.894 284.506 282.179Z" fill="black"/>
<path d="M355.646 273.776L358.775 298.46L365.791 297.57L366.955 306.751L360.213 309.102L360.126 309.113L361.74 321.845L346.843 323.734L345.229 311.002L321.065 314.065C319.448 314.27 318.007 314.013 316.743 313.293C315.478 312.574 314.559 311.575 313.987 310.299C313.407 308.964 313.31 307.51 313.698 305.935L323.936 265.916L339.006 264.005L330.146 299.626C329.953 300.413 330.03 301.019 330.377 301.444C330.774 301.805 331.349 301.937 332.099 301.842L343.878 300.349L341.935 285.019L343.434 275.324L355.646 273.776Z" fill="black"/>
</g>
</g>
<defs>
<filter id="filter0_d" x="45.2861" y="29.3936" width="486.902" height="450.536" filterUnits="userSpaceOnUse" color-interpolation-filters="sRGB">
<feFlood flood-opacity="0" result="BackgroundImageFix"/>
<feColorMatrix in="SourceAlpha" type="matrix" values="0 0 0 0 0 0 0 0 0 0 0 0 0 0 0 0 0 0 127 0"/>
<feOffset dx="10" dy="15"/>
<feGaussianBlur stdDeviation="15"/>
<feColorMatrix type="matrix" values="0 0 0 0 0 0 0 0 0 0 0 0 0 0 0 0 0 0 0.25 0"/>
<feBlend mode="multiply" in2="BackgroundImageFix" result="effect1_dropShadow"/>
<feBlend mode="normal" in="SourceGraphic" in2="effect1_dropShadow" result="shape"/>
</filter>
<filter id="filter1_i" x="65.2861" y="44.3936" width="426.902" height="394.536" filterUnits="userSpaceOnUse" color-interpolation-filters="sRGB">
<feFlood flood-opacity="0" result="BackgroundImageFix"/>
<feBlend mode="normal" in="SourceGraphic" in2="BackgroundImageFix" result="shape"/>
<feColorMatrix in="SourceAlpha" type="matrix" values="0 0 0 0 0 0 0 0 0 0 0 0 0 0 0 0 0 0 127 0" result="hardAlpha"/>
<feOffset dy="4"/>
<feGaussianBlur stdDeviation="7.5"/>
<feComposite in2="hardAlpha" operator="arithmetic" k2="-1" k3="1"/>
<feColorMatrix type="matrix" values="0 0 0 0 1 0 0 0 0 0.907922 0 0 0 0 0.3717 0 0 0 1 0"/>
<feBlend mode="normal" in2="shape" result="effect1_innerShadow"/>
</filter>
<filter id="filter2_di" x="93.6709" y="80.2256" width="372.009" height="341.674" filterUnits="userSpaceOnUse" color-interpolation-filters="sRGB">
<feFlood flood-opacity="0" result="BackgroundImageFix"/>
<feColorMatrix in="SourceAlpha" type="matrix" values="0 0 0 0 0 0 0 0 0 0 0 0 0 0 0 0 0 0 127 0"/>
<feOffset dy="4"/>
<feGaussianBlur stdDeviation="7.5"/>
<feColorMatrix type="matrix" values="0 0 0 0 1 0 0 0 0 0.619608 0 0 0 0 0.0862745 0 0 0 1 0"/>
<feBlend mode="normal" in2="BackgroundImageFix" result="effect1_dropShadow"/>
<feBlend mode="normal" in="SourceGraphic" in2="effect1_dropShadow" result="shape"/>
<feColorMatrix in="SourceAlpha" type="matrix" values="0 0 0 0 0 0 0 0 0 0 0 0 0 0 0 0 0 0 127 0" result="hardAlpha"/>
<feOffset dy="4"/>
<feGaussianBlur stdDeviation="5"/>
<feComposite in2="hardAlpha" operator="arithmetic" k2="-1" k3="1"/>
<feColorMatrix type="matrix" values="0 0 0 0 1 0 0 0 0 1 0 0 0 0 1 0 0 0 0.67 0"/>
<feBlend mode="normal" in2="shape" result="effect2_innerShadow"/>
</filter>
<filter id="filter3_di" x="190.5" y="221.447" width="188.409" height="134.551" filterUnits="userSpaceOnUse" color-interpolation-filters="sRGB">
<feFlood flood-opacity="0" result="BackgroundImageFix"/>
<feColorMatrix in="SourceAlpha" type="matrix" values="0 0 0 0 0 0 0 0 0 0 0 0 0 0 0 0 0 0 127 0"/>
<feOffset dy="4"/>
<feGaussianBlur stdDeviation="5"/>
<feColorMatrix type="matrix" values="0 0 0 0 1 0 0 0 0 0.619608 0 0 0 0 0.0862745 0 0 0 1 0"/>
<feBlend mode="normal" in2="BackgroundImageFix" result="effect1_dropShadow"/>
<feBlend mode="normal" in="SourceGraphic" in2="effect1_dropShadow" result="shape"/>
<feColorMatrix in="SourceAlpha" type="matrix" values="0 0 0 0 0 0 0 0 0 0 0 0 0 0 0 0 0 0 127 0" result="hardAlpha"/>
<feOffset dy="4"/>
<feGaussianBlur stdDeviation="2"/>
<feComposite in2="hardAlpha" operator="arithmetic" k2="-1" k3="1"/>
<feColorMatrix type="matrix" values="0 0 0 0 1 0 0 0 0 1 0 0 0 0 1 0 0 0 0.41 0"/>
<feBlend mode="normal" in2="shape" result="effect2_innerShadow"/>
</filter>
</defs>
</svg>
